<?xml version="1.0" encoding="utf-8"?>
<!-- Generator: Adobe Illustrator 25.4.1, SVG Export Plug-In . SVG Version: 6.00 Build 0)  -->
<svg version="1.1" id="Calque_1" xmlns="http://www.w3.org/2000/svg" xmlns:xlink="http://www.w3.org/1999/xlink" x="0px" y="0px"
	 viewBox="0 0 1184.2 292.3" style="enable-background:new 0 0 1184.2 292.3;" xml:space="preserve">
<style type="text/css">
	.st0{fill:#002448;}
</style>
<path class="st0" d="M210,188.5h-19.6c-4.4,0-7.4-4.5-5.6-8.5L260.2,4.5c1-2.2,3.2-3.7,5.6-3.7h28.6c2.5,0,4.7,1.5,5.6,3.7
	L374.8,180c1.7,4-1.2,8.5-5.6,8.5h-20.5c-2.5,0-4.7-1.5-5.6-3.7L282.2,41.6c-1.1-2.6-4.8-2.6-5.9,0l-60.6,143.2
	C214.7,187,212.5,188.5,210,188.5L210,188.5z M931.8,147.7L992.4,4.5c1-2.3,3.2-3.7,5.7-3.7h19.6c4.4,0,7.4,4.5,5.6,8.5l-75.4,175.4
	c-1,2.2-3.2,3.7-5.6,3.7h-28.6c-2.5,0-4.7-1.5-5.6-3.7L833.2,9.3c-1.7-4,1.2-8.5,5.6-8.5h20.5c2.5,0,4.7,1.5,5.6,3.7l60.9,143.2
	C927,150.3,930.7,150.3,931.8,147.7z M778.8,0.8h19.6c4.4,0,7.4,4.5,5.6,8.5l-75.4,175.4c-1,2.2-3.2,3.7-5.6,3.7h-19.6
	c-4.4,0-7.4-4.5-5.6-8.5L773.2,4.5C774.2,2.3,776.4,0.8,778.8,0.8z"/>
<g>
	<path class="st0" d="M166.4,33.5l-10.6,13.3c-2.3,2.8-6.4,3-9,0.5c-13.2-11.9-30.6-19.1-47.5-19.1c-37.5,0-67,29-67,66
		s29.5,66.2,67,66.2c16.9,0,34.1-6.9,47.8-18.2c2.6-2.1,6.3-2,8.6,0.5l10.6,11.8c2.2,2.5,2.1,6.5-0.4,8.7
		c-18.7,16.4-43.7,26.7-68.2,26.7c-55,0-97.6-41.6-97.6-95.4C0,41,43.2,0,98.7,0c24.6,0,49.1,9.4,67.1,25
		C168.2,27.2,168.4,30.9,166.4,33.5z M474,0.8c47.2,0,74.3,23.3,74.3,64.1c0,42.4-27.1,67-74.3,67h-37c-3.4,0-6.1,2.7-6.1,6.1v44.3
		c0,3.4-2.7,6.1-6.1,6.1h-19.4c-3.4,0-6.1-2.7-6.1-6.1V6.9c0-3.4,2.7-6.1,6.1-6.1C405.4,0.8,474,0.8,474,0.8z M430.8,97.4
		c0,3.4,2.7,6.1,6.1,6.1h35.7c29,0,45.3-12.3,45.3-37.8c0-24.7-16.3-36.5-45.3-36.5h-35.7c-3.4,0-6.1,2.7-6.1,6.1L430.8,97.4
		L430.8,97.4z M650.5,35.4v147c0,3.4-2.7,6.1-6.1,6.1H625c-3.4,0-6.1-2.7-6.1-6.1v-147c0-3.4-2.7-6.1-6.1-6.1h-47
		c-3.4,0-6.1-2.7-6.1-6.1V6.9c0-3.4,2.7-6.1,6.1-6.1H704c3.4,0,6.1,2.7,6.1,6.1v16.2c0,3.4-2.7,6.1-6.1,6.1h-47.3
		C653.2,29.2,650.5,32,650.5,35.4z M1077.2,35.4v38.4c0,3.4,2.7,6.1,6.1,6.1h79.4c3.4,0,6.1,2.7,6.1,6.1v16.2c0,3.4-2.7,6.1-6.1,6.1
		h-79.4c-3.4,0-6.1,2.7-6.1,6.1v39.5c0,3.4,2.7,6.1,6.1,6.1h93.4c3.4,0,6.1,2.7,6.1,6.1v16.2c0,3.4-2.7,6.1-6.1,6.1h-125
		c-3.4,0-6.1-2.7-6.1-6.1V6.9c0-3.4,2.7-6.1,6.1-6.1h121.8c3.4,0,6.1,2.7,6.1,6.1v16.2c0,3.4-2.7,6.1-6.1,6.1h-90.2
		C1079.9,29.2,1077.2,32,1077.2,35.4L1077.2,35.4z"/>
</g>
<g>
	<path class="st0" d="M11.7,239.3h21.7c16.1,0,27.1,9.9,27.1,24.8c0,14.9-11,24.8-27.1,24.8H11.7V239.3L11.7,239.3z M33,281
		c11.1,0,18.2-6.7,18.2-17s-7.1-17-18.2-17H21v34H33z M107.2,281.1v7.7H70v-49.6h36.2v7.7h-27v12.9h23.9v7.6H79.3v13.7L107.2,281.1
		L107.2,281.1z M89.9,235.2h-7.6l9.6-9.7h10.4L89.9,235.2z M169.1,239.3l-21.6,49.6h-9.1l-21.7-49.6h10l16.5,38.2l16.6-38.2H169.1z
		 M216.8,281.1v7.7h-37.2v-49.6h36.2v7.7h-27v12.9h23.9v7.6h-23.9v13.7L216.8,281.1L216.8,281.1z M232.4,239.3h9.2V281h25.9v7.8
		h-35.1V239.3L232.4,239.3z M275.7,264c0-14.7,11.3-25.5,26.7-25.5c15.4,0,26.7,10.8,26.7,25.5c0,14.7-11.3,25.5-26.7,25.5
		C287,289.5,275.7,278.7,275.7,264z M319.8,264c0-10.1-7.4-17.4-17.4-17.4S285,253.9,285,264s7.4,17.4,17.4,17.4
		C312.4,281.5,319.8,274.2,319.8,264L319.8,264z M384,256.9c0,10.9-8.1,17.6-21.1,17.6h-11.2v14.3h-9.2v-49.6h20.4
		C376,239.3,384,245.9,384,256.9L384,256.9z M374.8,256.9c0-6.2-4.2-9.8-12.2-9.8h-10.8v19.7h10.8
		C370.6,266.7,374.8,263.1,374.8,256.9z M437.9,256.9c0,10.9-8.1,17.6-21.1,17.6h-11.2v14.3h-9.2v-49.6h20.4
		C429.8,239.3,437.9,245.9,437.9,256.9L437.9,256.9z M428.6,256.9c0-6.2-4.2-9.8-12.2-9.8h-10.8v19.7h10.8
		C424.4,266.7,428.6,263.1,428.6,256.9z M486.8,281.1v7.7h-37.2v-49.6h36.2v7.7h-27v12.9h23.9v7.6h-23.9v13.7L486.8,281.1
		L486.8,281.1z M533.7,288.8l-10.1-14.5c-0.6,0.1-1.3,0.1-1.9,0.1h-11.2v14.5h-9.2v-49.6h20.4c13,0,21.1,6.7,21.1,17.6
		c0,7.5-3.8,13-10.5,15.6l11.4,16.3H533.7z M521.3,247h-10.8v19.8h10.8c8.1,0,12.2-3.7,12.2-9.9S529.3,247,521.3,247z M631.4,277.4
		h-24.8l-4.9,11.5h-9.5l22.3-49.6h9.1l22.4,49.6h-9.6L631.4,277.4z M628.4,270.1l-9.3-21.7l-9.3,21.7H628.4z M694.8,239.3
		l-21.6,49.6h-9.1l-21.7-49.6h10l16.5,38.2l16.6-38.2H694.8z M741.5,281.1v7.7h-37.2v-49.6h36.2v7.7h-27v12.9h23.9v7.6h-23.9v13.7
		L741.5,281.1L741.5,281.1z M751.7,264c0-14.8,11.3-25.5,26.5-25.5c8.1,0,15,2.9,19.6,8.3l-5.9,5.6c-3.6-3.9-8.1-5.8-13.2-5.8
		c-10.3,0-17.7,7.2-17.7,17.4c0,10.2,7.4,17.4,17.7,17.4c5.2,0,9.6-1.9,13.2-5.9l5.9,5.7c-4.6,5.4-11.5,8.3-19.7,8.3
		C763,289.5,751.7,278.8,751.7,264L751.7,264z M842.4,239.3h21.7c16.1,0,27,9.9,27,24.8c0,14.9-11,24.8-27,24.8h-21.7V239.3
		L842.4,239.3z M863.6,281c11,0,18.2-6.7,18.2-17s-7.2-17-18.2-17h-12v34H863.6z M900.3,267.2v-28h9.2v27.6
		c0,10.2,4.6,14.6,12.6,14.6s12.5-4.4,12.5-14.6v-27.6h9.1v28c0,14.4-8.2,22.3-21.7,22.3C908.4,289.5,900.3,281.7,900.3,267.2
		L900.3,267.2z M991.4,283.6l3.2-7.2c4,3.2,10.3,5.5,16.4,5.5c7.7,0,11-2.8,11-6.5c0-10.7-29.4-3.7-29.4-22.1c0-8,6.4-14.8,20-14.8
		c5.9,0,12.2,1.6,16.5,4.4l-2.9,7.1c-4.5-2.6-9.4-3.9-13.7-3.9c-7.6,0-10.8,3-10.8,6.7c0,10.6,29.4,3.7,29.4,21.9
		c0,7.9-6.4,14.7-20,14.7C1003.2,289.5,995.5,287.1,991.4,283.6L991.4,283.6z M1079.3,281.1v7.7h-37.2v-49.6h36.2v7.7h-27v12.9h23.9
		v7.6h-23.9v13.7L1079.3,281.1L1079.3,281.1z M1133.4,239.3v49.6h-7.6l-27.3-33.6v33.6h-9.1v-49.6h7.6l27.3,33.6v-33.6L1133.4,239.3
		L1133.4,239.3z M1144.6,283.6l3.2-7.2c4,3.2,10.3,5.5,16.4,5.5c7.7,0,11-2.8,11-6.5c0-10.7-29.4-3.7-29.4-22.1
		c0-8,6.4-14.8,20-14.8c5.9,0,12.2,1.6,16.5,4.4l-2.9,7.1c-4.5-2.6-9.3-3.9-13.7-3.9c-7.6,0-10.8,3-10.8,6.7
		c0,10.6,29.4,3.7,29.4,21.9c0,7.9-6.4,14.7-20,14.7C1156.4,289.5,1148.7,287.1,1144.6,283.6z"/>
</g>
</svg>
