<svg enable-background="new 0 0 311.81 311.81" viewBox="0 0 311.81 311.81" xmlns="http://www.w3.org/2000/svg"><path d="m0 0h311.81v311.81h-311.81z" fill="#3392d0"/><g fill="#fff"><path d="m51.45 166.16h5.84l5.17 22.18h.08l4.73-22.18h7.55l4.89 22.18h.08l5.21-22.18h5.41l-7.23 27.75h-7.16l-5.02-22.18h-.08l-4.92 22.18h-7.2z"/><path d="m95.33 175.82c1.99-1.88 4.52-2.83 7.59-2.86 3.13.03 5.68.98 7.67 2.86 2.01 1.91 3.03 4.57 3.06 7.99 0 3-.93 5.49-2.78 7.47-1.86 2.01-4.51 3.05-7.95 3.1-3.39-.05-6.02-1.09-7.87-3.1-1.88-1.99-2.82-4.48-2.82-7.47.03-3.42 1.06-6.08 3.1-7.99zm2.55 8.55c.05.45.12.87.2 1.27.16.85.42 1.62.79 2.31.4.69.93 1.23 1.59 1.63.64.45 1.46.68 2.46.68 1.03 0 1.89-.21 2.58-.64.66-.4 1.19-.94 1.59-1.63s.66-1.46.79-2.31c.13-.82.2-1.66.2-2.5 0-1.64-.41-3.06-1.23-4.25-.87-1.19-2.19-1.8-3.94-1.83-1.7.03-2.97.65-3.82 1.87-.87 1.19-1.31 2.6-1.31 4.21.02.39.04.79.1 1.19z"/><path d="m117.95 164.1h5.33v29.81h-5.33z"/><path d="m129 164.1h5.33v17.53h.08l6.36-8.19h6.28l-7.63 9.14 8.59 11.33h-6.76l-6.84-9.94h-.08v9.94h-5.33z"/><path d="m167.4 192.8c-1.88 1.06-4.23 1.59-7.04 1.59-7.05-.11-10.61-3.64-10.69-10.61 0-3.05.8-5.6 2.39-7.67 1.59-2.04 3.96-3.09 7.11-3.14 3.74.03 6.32 1.18 7.75 3.46 1.35 2.28 2.01 5.25 1.99 8.9h-14.15c.13 1.64.73 2.9 1.79 3.78 1.06.93 2.41 1.39 4.05 1.39 1.3 0 2.52-.21 3.66-.64 1.11-.37 2.16-.85 3.14-1.43zm-3.58-11.13c-.05-1.35-.41-2.48-1.07-3.38-.69-.93-1.78-1.4-3.26-1.43-1.46.03-2.58.48-3.38 1.35-.79.9-1.25 2.05-1.35 3.46z"/><path d="m173.08 173.44h5.05v2.78h.08c1.7-2.2 3.94-3.29 6.72-3.26 2.41.03 4.19.78 5.33 2.27 1.09 1.48 1.63 3.41 1.63 5.76v12.92h-5.33v-10.93c0-.66-.01-1.34-.04-2.03s-.16-1.31-.4-1.87c-.19-.61-.52-1.1-.99-1.47-.5-.34-1.18-.52-2.03-.52-.95 0-1.72.22-2.3.68-.58.45-1.06 1.02-1.43 1.71-.34.69-.58 1.42-.72 2.19-.16.79-.24 1.54-.24 2.23v10.02h-5.33z"/><path d="m195.03 166.16h5.84l5.17 22.18h.08l4.73-22.18h7.55l4.89 22.18h.08l5.21-22.18h5.41l-7.24 27.75h-7.16l-5.01-22.18h-.08l-4.93 22.18h-7.19z"/><path d="m253.54 192.8c-1.88 1.06-4.23 1.59-7.04 1.59-7.05-.11-10.61-3.64-10.69-10.61 0-3.05.8-5.6 2.39-7.67 1.59-2.04 3.96-3.09 7.12-3.14 3.74.03 6.32 1.18 7.75 3.46 1.35 2.28 2.01 5.25 1.99 8.9h-14.16c.13 1.64.73 2.9 1.79 3.78 1.06.93 2.41 1.39 4.05 1.39 1.3 0 2.52-.21 3.66-.64 1.11-.37 2.16-.85 3.14-1.43zm-3.58-11.13c-.05-1.35-.41-2.48-1.07-3.38-.69-.93-1.78-1.4-3.26-1.43-1.46.03-2.58.48-3.38 1.35-.79.9-1.25 2.05-1.35 3.46z"/><path d="m259.35 173.44h4.73v4.65h.08c.16-1.06.74-2.16 1.75-3.3.98-1.17 2.27-1.78 3.86-1.83.53 0 1.07.05 1.63.16v5.37c-.56-.29-1.35-.44-2.39-.44-1.06 0-1.88.29-2.46.88-.58.56-1.02 1.29-1.31 2.19-.26.85-.42 1.75-.48 2.7-.05.93-.08 1.79-.08 2.58v7.51h-5.33z"/><path d="m274.81 164.1h5.33v17.53h.08l6.36-8.19h6.28l-7.63 9.14 8.59 11.33h-6.76l-6.84-9.94h-.08v9.94h-5.33z"/></g><path d="m46.52 188.76c-17.83-.48-25.74-20.83-21.45-34.94 5.06-16.63 20.15-21.11 29.77-21.72 15.8-1 28.3 10.16 33.72 15.01 2.08 1.86 3.69 3.56 4.82 4.82" fill="none" stroke="#fff" stroke-miterlimit="10" stroke-width="8"/><path d="m72.26 132.84c9.55-17.91 27.1-29.2 45.21-28.53 18.43.67 30.64 13.47 33.17 16.12 10.43 10.94 13.23 23.32 14.08 28.35" fill="none" stroke="#fff" stroke-miterlimit="10" stroke-width="8"/><path d="m157.68 124.69c19.67-12.83 43.72-11.75 58.18 1.3 12.95 11.68 13.49 28.71 13.53 32.43" fill="none" stroke="#fff" stroke-miterlimit="10" stroke-width="8"/></svg>