<?xml version="1.0" encoding="utf-8"?>
<!-- Generator: Adobe Illustrator 21.0.2, SVG Export Plug-In . SVG Version: 6.00 Build 0)  -->
<svg version="1.1" id="Layer_1" xmlns="http://www.w3.org/2000/svg" xmlns:xlink="http://www.w3.org/1999/xlink" x="0px" y="0px"
	 viewBox="0 0 700 700" style="enable-background:new 0 0 700 700;" xml:space="preserve">
<style type="text/css">
	.st0{fill:#1A1A1F;}
	.st1{fill:#FF8B22;}
	.st2{fill:#FFFFFF;}
	.st3{fill:#1D1D1B;}
</style>
<path class="st1" d="M350,35C176,35,35,176,35,350s141,315,315,315s315-141,315-315S524,35,350,35z"/>
<polygon class="st2" points="209.6,477 188.1,477 280,200.9 301.6,200.9 "/>
<path class="st2" d="M470.5,281.5l-76.2-2v122.8c0,32.1,11.4,48.1,34.3,48.1c14.2,0,27-3.3,38.6-10c1.4,0,2.6,0.9,3.7,2.7
	c1.1,1.8,1.7,3.7,1.7,5.8c0,4.3-6.3,10-19,17.3c-12.7,7.2-26.9,10.9-42.8,10.9c-19.4,0-34.9-5.9-46.5-17.8
	c-11.6-11.9-17.4-27.5-17.4-46.9v-2.3l1-124.3c0-4.8-2-7.2-6.1-7.2h-19.4c-3.8,0-5.6-2.2-5.6-6.5c0-3.4,1.5-5.9,4.6-7.5
	c23.6-14,44.2-33.8,61.7-59.3c1.9-2.7,4.3-4.1,7.1-4.1c4.8,0,7.1,1.4,7.1,4.1l-2,48.9h75.2c4.4,0,6.7,4.6,6.7,13.8
	S475,281.5,470.5,281.5z"/>
</svg>
