<?xml version="1.0" encoding="UTF-8"?><svg xmlns="http://www.w3.org/2000/svg" width="500" height="500" viewBox="0 0 500 500" fill="none" version="1.2" baseProfile="tiny-ps"><title>Localyze</title><ellipse cx="251.5" cy="249" rx="241.5" ry="240" fill="#76FAC1"></ellipse><path fill-rule="evenodd" d="M250.923 489C117.312 489 9 381.548 9 249C9 116.452 117.312 9 250.923 9C328.272 9 397.142 45.0116 441.428 101.056C435.283 103.921 431.027 110.087 431.027 117.231C431.027 127.107 422.911 135.114 412.898 135.114H399.21C388.882 135.114 380.509 143.372 380.509 153.56C380.509 163.747 388.882 172.006 399.21 172.006H480.128C483.895 183.048 486.875 194.45 489 206.147C487.092 206.834 485.032 207.208 482.883 207.208H481.357C471.198 207.208 462.963 215.331 462.963 225.351V226.485C462.963 235.879 455.243 243.494 445.72 243.494C436.196 243.494 428.476 235.879 428.476 226.485V225.351C428.476 215.331 420.241 207.208 410.082 207.208C399.924 207.208 391.689 215.331 391.689 225.351V226.485C391.689 235.879 383.968 243.494 374.445 243.494C364.921 243.494 357.201 251.11 357.201 260.503V261.637C357.201 271.657 365.462 279.78 375.621 279.78C385.808 279.78 394.094 287.927 394.094 297.976V300.436C394.094 309.801 401.79 317.393 411.285 317.393C420.779 317.393 428.476 324.985 428.476 334.35V370.495C428.476 380.515 436.711 388.638 446.869 388.638C447.153 388.638 447.437 388.632 447.718 388.619C403.826 449.397 332.036 489 250.923 489ZM359.71 84.7431C359.71 74.723 351.475 66.6001 341.317 66.6001H310.791C299.714 66.6001 290.735 75.4573 290.735 86.3831V114.176C290.735 123.57 298.455 131.185 307.978 131.185H310.877C318.8 131.185 325.222 124.85 325.222 117.036C325.222 109.221 331.645 102.886 339.567 102.886H342.466C351.99 102.886 359.71 95.2709 359.71 85.8771V84.7431ZM107.694 115.62C107.694 106.633 115.079 99.3482 124.19 99.3482H239.407C250.483 99.3482 259.463 108.205 259.463 119.131L259.463 151.894C259.463 160.124 266.226 166.795 274.57 166.795C282.914 166.795 289.677 173.467 289.677 181.697V196.135C289.677 204.672 282.661 211.593 274.007 211.593C265.352 211.593 258.336 218.513 258.336 227.05V227.544C258.336 236.353 251.096 243.494 242.165 243.494H241.092C231.569 243.494 223.849 251.11 223.849 260.503V261.637C223.849 271.657 215.613 279.78 205.455 279.78H203.156C192.997 279.78 184.762 271.657 184.762 261.637C184.762 251.617 176.527 243.494 166.369 243.494C156.21 243.494 147.975 235.371 147.975 225.351V207.263C147.975 207.233 148 207.208 148.031 207.208C148.062 207.208 148.087 207.184 148.087 207.153V189.077C148.087 179.063 139.857 170.945 129.705 170.945H101.095C90.1621 170.945 81.2991 162.203 81.2991 151.419V144.91C81.2991 137.72 87.2078 131.892 94.4964 131.892C101.785 131.892 107.694 126.064 107.694 118.875V115.62ZM241.563 271.831C231.405 271.831 223.17 279.954 223.17 289.974V292.242C223.17 301.01 230.376 308.117 239.264 308.117C248.153 308.117 255.359 315.225 255.359 323.993V380.293C255.359 380.512 255.539 380.689 255.761 380.689C255.983 380.689 256.163 380.867 256.163 381.086V416.579C256.163 416.798 255.983 416.975 255.761 416.975C255.539 416.975 255.359 417.153 255.359 417.372V435.118C255.359 445.139 263.594 453.261 273.752 453.261H274.413C284.206 453.261 292.145 445.43 292.145 435.77V418.433C292.145 418.348 292.215 418.279 292.301 418.279C292.386 418.279 292.456 418.211 292.456 418.126V397.545C292.456 388.236 300.107 380.689 309.544 380.689C318.982 380.689 326.633 373.143 326.633 363.833V362.546C326.633 352.526 334.868 344.403 345.027 344.403C355.185 344.403 363.42 336.281 363.42 326.26C363.42 316.24 355.185 308.117 345.027 308.117C334.868 308.117 326.633 299.995 326.633 289.974C326.633 279.954 318.398 271.831 308.24 271.831H241.563Z" fill="#0B1F9C"></path></svg>