<svg viewBox="0 0 100 100" fill="none" xmlns="http://www.w3.org/2000/svg">

<path d="M49.7295 81.2473V63.5373C65.7595 61.9173 80.1995 52.5773 88.1895 38.3473C89.5395 35.9473 88.6794 32.9173 86.2894 31.5673C83.8894 30.2173 80.8594 31.0773 79.5094 33.4673C72.4594 46.0273 59.1495 53.8273 44.7595 53.8273C30.3695 53.8273 17.0595 46.0273 10.0095 33.4673C8.65946 31.0673 5.62945 30.2173 3.22945 31.5673C1.59945 32.4773 0.689453 34.1673 0.689453 35.9173C0.689453 36.7373 0.899456 37.5773 1.32946 38.3473C9.31946 52.5773 23.7495 61.9273 39.7895 63.5373V81.2473H49.7295Z" fill="#00ae99"></path>
<path d="M44.7589 41.3381C56.1525 41.3381 65.3889 32.1018 65.3889 20.7081C65.3889 9.31449 56.1525 0.078125 44.7589 0.078125C33.3653 0.078125 24.1289 9.31449 24.1289 20.7081C24.1289 32.1018 33.3653 41.3381 44.7589 41.3381Z" fill="#00ae99"></path>

</svg>