<?xml version="1.0" encoding="UTF-8" standalone="no"?>
<!-- Generator: Gravit.io -->
<svg
	xmlns="http://www.w3.org/2000/svg"
	xmlns:xlink="http://www.w3.org/1999/xlink" style="isolation:isolate" viewBox="0 0 500 500" width="500pt" height="500pt">
	<defs>
		<clipPath id="_clipPath_eiD5TyEvdB66DazLzSE1bupLmuFMPurB">
			<rect width="500" height="500"/>
		</clipPath>
	</defs>
	<g clip-path="url(#_clipPath_eiD5TyEvdB66DazLzSE1bupLmuFMPurB)">
		<g fill="rgb(255,255,255)">
			<circle vector-effect="non-scaling-stroke" cx="250.00000000000003" cy="250" r="250.00000000000003"/>
		</g>
		<g>
			<path d=" M 310.401 331.849 L 434.142 331.849 L 409.849 356.141 L 296.161 356.141 C 301.678 348.511 306.32 340.319 310.401 331.849 Z "
				fill="rgb(145,60,92)"/>
			<path d=" M 325.73 133.623 L 439 246.894 L 439 281.248 L 325.73 167.978 L 325.73 133.623 Z "
				fill="rgb(202,80,125)"/>
			<path d=" M 439 297.84 L 439 322.132 L 314.686 322.132 C 317.754 314.246 320.513 306.146 322.212 297.84 L 439 297.84 Z "
				fill="rgb(202,80,125)"/>
			<path d=" M 325.73 181.722 L 432.13 288.123 L 397.776 288.123 L 325.73 216.076 L 325.73 181.722 Z "
				fill="rgb(145,60,92)"/>
			<path d=" M 258.197 65.605 L 282.489 89.897 L 282.489 261.401 L 282.489 261.401 L 282.489 261.887 C 282.489 332.993 224.847 390.636 153.74 390.636 L 153.74 366.344 C 211.43 366.344 258.197 319.577 258.197 261.887 L 258.197 65.605 Z "
				fill="rgb(196,107,57)"/>
			<path d=" M 292.206 99.614 L 316.499 123.907 L 316.499 261.887 C 316.676 339.593 258.068 410.569 180.64 422.395 L 158.494 400.248 C 233.553 397.227 291.261 336.672 292.206 261.887 L 292.206 99.614 Z "
				fill="rgb(149,84,49)"/>
			<path d=" M 153.74 322.132 C 120.199 322.132 93.009 294.942 93.009 261.401 C 93.009 227.86 120.199 200.67 153.74 200.67 L 153.74 200.67 L 156.865 200.749 C 164.943 201.399 173.254 202.958 180.462 206.872 L 180.462 236.65 C 173.469 229.108 163.937 225.22 153.74 224.963 C 133.615 224.963 117.302 241.276 117.302 261.401 C 117.358 281.636 133.85 297.337 153.74 297.84 L 221.665 297.84 L 221.665 297.84 L 241.097 297.84 C 237.527 306.684 232.484 314.814 226.399 322.132 L 153.74 322.132 Z "
				fill="rgb(70,120,109)"/>
			<path d=" M 214.471 99.614 L 214.471 261.401 L 214.471 261.401 C 214.143 270.423 212.573 280.089 208.194 288.123 L 178.252 288.123 C 185.741 281.084 189.677 271.581 190.179 261.401 L 190.179 261.401 L 190.179 123.907 L 214.471 99.614 Z "
				fill="rgb(70,120,109)"/>
			<path d=" M 153.74 166.661 C 162.784 166.668 171.822 167.904 180.462 170.591 L 180.462 196.285 C 172.058 192.508 162.874 191.185 153.74 190.953 C 114.833 190.953 83.292 222.494 83.292 261.401 C 83.292 300.309 114.833 331.849 153.74 331.849 L 216.975 331.849 C 199.689 347.631 176.829 355.172 153.74 356.141 C 101.416 356.141 59 313.725 59 261.401 C 59 209.077 101.416 166.661 153.74 166.661 L 153.74 166.661 Z "
				fill="rgb(93,157,142)"/>
			<path d=" M 248.48 65.605 L 248.48 261.401 C 248.472 270.445 247.237 279.483 244.551 288.123 L 218.647 288.123 C 222.343 279.866 223.737 270.852 224.175 261.887 L 224.188 261.887 L 224.188 89.897 L 248.48 65.605 Z "
				fill="rgb(93,157,142)"/>
		</g>
	</g>
</svg>
