<?xml version="1.0" encoding="utf-8"?>
<!-- Generator: Adobe Illustrator 19.2.1, SVG Export Plug-In . SVG Version: 6.00 Build 0)  -->
<svg version="1.1" id="Layer_1" xmlns="http://www.w3.org/2000/svg" xmlns:xlink="http://www.w3.org/1999/xlink" x="0px" y="0px"
	 width="560px" height="180px" viewBox="0 0 560 180" enable-background="new 0 0 560 180" xml:space="preserve">
<g>

	<path fill="#CC1111" d="M76.6,67.1c5.2,0,9.4,4.2,9.4,9.4c0,3.9-1.9,10-4.7,16.7c2.4,5.8,5.5,12.2,8.6,18.2
		c6.6-12.9,13.3-27.6,13.3-34.9c0-14.6-11.9-26.5-26.5-26.5S50.1,61.8,50.1,76.5c0,14,24.2,55,26.5,58.8c0.8-1.4,4.3-7.3,8.6-15.1
		C77.4,106,67.2,85.6,67.2,76.5C67.2,71.3,71.4,67.1,76.6,67.1z"/>
</g>
</svg>
